# xmcd
#
# Track frame offsets:
#	150
#	15738
#	32159
#	49132
#	65176
#	82114
#	99785
#	115754
#	131900
#	147116
#	163190
#	178913
#
# Disc length: 2586 seconds
#
# Revision: 9
# Processed by: cddbd v1.5.2PL0 Copyright (c) Steve Scherf et al.
# Submitted via: audiograbber 1.83.01
#
DISCID=ab0a180c
DTITLE=In-Grid - Rendez-vous
DYEAR=2003
DGENRE=Pop
TTITLE0=In-tango
TTITLE1=Tu es foutu
TTITLE2=Mais la nuit ... il dort!
TTITLE3=Shock
TTITLE4=Dans ma memoire
TTITLE5=Pour toujours
TTITLE6=Souvenir d'été
TTITLE7=I'm folle de toi
TTITLE8=Je ne crois pas
TTITLE9=Esclave de toi
TTITLE10=Ah l'amour l'amour
TTITLE11=Va au diable
EXTD=
EXTT0=
EXTT1=
EXTT2=
EXTT3=
EXTT4=
EXTT5=
EXTT6=
EXTT7=
EXTT8=
EXTT9=
EXTT10=
EXTT11=
PLAYORDER=
